<?xml version="1.0" standalone="no"?><!DOCTYPE svg PUBLIC "-//W3C//DTD SVG 1.1//EN" "http://www.w3.org/Graphics/SVG/1.1/DTD/svg11.dtd"><svg t="1686277173413" class="icon" viewBox="0 0 1024 1024" version="1.1" xmlns="http://www.w3.org/2000/svg" p-id="2351" xmlns:xlink="http://www.w3.org/1999/xlink" width="200" height="200"><path d="M512.512 847.2576c-57.7536 0-299.6224-226.6112-299.6224-449.4336C212.8896 232.448 347.0336 98.304 512.512 98.304S812.032 232.448 812.032 397.824c0 222.8224-241.7664 449.4336-299.52 449.4336z" fill="#09DFA0" p-id="2352"></path><path d="M512.512 907.1616c-63.5904 0-329.5232-253.7472-329.5232-503.296 0-181.9648 147.5584-329.5232 329.5232-329.5232s329.5232 147.5584 329.5232 329.5232c0 249.5488-266.0352 503.296-329.5232 503.296z m0-778.9568c-148.8896 0-269.6192 120.7296-269.6192 269.6192 0 188.2112 199.3728 419.4304 269.6192 419.4304 66.56 0 269.6192-229.376 269.6192-419.4304 0-71.4752-28.3648-140.0832-78.9504-190.6688-50.5856-50.4832-119.1936-78.9504-190.6688-78.9504z m0 359.5264c-49.664 0-89.9072-40.2432-89.9072-89.9072s40.2432-89.9072 89.9072-89.9072 89.9072 40.2432 89.9072 89.9072c0 23.8592-9.4208 46.6944-26.3168 63.5904s-39.8336 26.3168-63.5904 26.3168z" fill="#09DFA0" p-id="2353"></path><path d="M726.3232 646.656H301.7728v-41.7792h41.472V271.7696c0-9.4208 3.6864-18.432 10.3424-25.088 6.5536-6.656 15.5648-10.4448 24.8832-10.4448h140.8c9.3184 0 18.3296 3.7888 24.8832 10.4448 6.656 6.656 10.3424 15.7696 10.3424 25.088v71.0656h105.5744c9.3184 0 18.3296 3.7888 24.8832 10.4448 6.656 6.656 10.3424 15.7696 10.3424 25.088v226.4064h31.0272v41.8816zM501.6576 342.8352H395.9808c-9.6256 0.3072-17.3056 8.192-17.3056 17.8176s7.68 17.5104 17.3056 17.8176h105.5744c9.6256-0.3072 17.3056-8.0896 17.3056-17.7152 0-9.728-7.5776-17.6128-17.2032-17.92z m0 106.5984H395.9808c-9.6256 0.3072-17.3056 8.192-17.3056 17.8176 0 9.6256 7.68 17.5104 17.3056 17.8176h105.5744c9.6256-0.3072 17.3056-8.0896 17.3056-17.7152 0-9.728-7.5776-17.6128-17.2032-17.92z m140.8 0H607.232c-9.6256 0.3072-17.3056 8.192-17.3056 17.8176 0 9.6256 7.68 17.5104 17.3056 17.8176h35.2256c9.6256-0.3072 17.3056-8.192 17.3056-17.8176 0-9.6256-7.68-17.5104-17.3056-17.8176z m0 0" fill="#FFFFFF" p-id="2354"></path></svg>